<?xml version="1.0" encoding="UTF-8"?>
<svg version="1.1" xmlns="http://www.w3.org/2000/svg" width="750" height="500">
<path d="M0 0 C247.5 0 495 0 750 0 C750 165 750 330 750 500 C502.5 500 255 500 0 500 C0 335 0 170 0 0 Z " fill="#FEFEFE" transform="translate(0,0)"/>
<path d="M0 0 C30.69 0 61.38 0 93 0 C93 1.32 93 2.64 93 4 C92.01 4.33 91.02 4.66 90 5 C88.28432339 8.50294871 88.28432339 8.50294871 87 12 C86.34 12 85.68 12 85 12 C84.91105469 12.53496094 84.82210937 13.06992188 84.73046875 13.62109375 C83.7528312 16.80495081 82.10283243 19.25594078 80.3125 22.0625 C77.10318269 27.14968604 74.14851246 32.31576547 71.31640625 37.625 C70.19353886 39.65082604 69.01091349 41.54013298 67.6875 43.4375 C66.17396959 45.73582396 65.41376225 47.31054536 65 50 C64.34 50 63.68 50 63 50 C62.72285156 50.72445312 62.44570313 51.44890625 62.16015625 52.1953125 C58.74753681 60.44534872 53.80811305 68.03051377 49.1862793 75.64624023 C47.24761557 78.85809321 45.38663205 82.05778828 43.75 85.4375 C42.04642513 88.9054917 40.13799554 92.09203169 38.05078125 95.3359375 C36.94771064 97.02173219 36.94771064 97.02173219 36 99 C31.24518354 98.42365861 28.02951788 96.44931479 24 94 C24 93.34 24 92.68 24 92 C23.29875 91.9175 22.5975 91.835 21.875 91.75 C18.34727053 90.82972275 15.93888386 89.11873023 13 87 C14.60972515 81.15415603 16.84788153 76.26012895 20.0625 71.1328125 C22.63430345 66.97437224 25.06128535 62.73745097 27.5 58.5 C38.44563966 39.56813796 38.44563966 39.56813796 44.58203125 31.12890625 C46.15735349 28.96578747 46.15735349 28.96578747 47 26 C29.63767065 23.98583177 29.63767065 23.98583177 13.58105469 28.68652344 C9.84212968 33.06779213 7.82413017 38.21078883 5.90185547 43.58935547 C4.65534152 46.92126633 2.97782251 49.71166932 1.125 52.75 C-1.28705611 56.97481287 -3.6817915 61.20885574 -6.06640625 65.44921875 C-16.04989321 83.19096645 -16.04989321 83.19096645 -21.33569336 91.86694336 C-26.08749839 99.71779794 -30.57495757 107.72534823 -35.10302734 115.70654297 C-38.00256158 120.80965485 -40.90239057 125.90541284 -43.99609375 130.89453125 C-44.41826172 131.57580078 -44.84042969 132.25707031 -45.27539062 132.95898438 C-46.33753022 134.65305241 -47.41598773 136.33686134 -48.49609375 138.01953125 C-50.25040396 141.49625511 -50.89787768 144.10603139 -51 148 C-49.81356812 150.65454187 -49.81356812 150.65454187 -48 153 C-47.01297381 154.80823198 -46.0339543 156.6208547 -45.0625 158.4375 C-41.61444902 165.71635272 -41.61444902 165.71635272 -36 171 C-35.66162109 170.03513672 -35.66162109 170.03513672 -35.31640625 169.05078125 C-33.5219377 164.89208708 -31.23553845 161.08531471 -28.9375 157.1875 C-27.94057372 155.48225728 -26.94449299 153.77651997 -25.94921875 152.0703125 C-25.45212402 151.21856445 -24.9550293 150.36681641 -24.44287109 149.48925781 C-22.34310018 145.86670886 -20.2934543 142.21701903 -18.25 138.5625 C-17.17683413 136.65218854 -16.10285948 134.74233351 -15.02880859 132.83251953 C-14.3398443 131.60533254 -13.65268438 130.3771309 -12.96728516 129.14794922 C-12.00623949 127.42791437 -11.03464702 125.71378495 -10.0625 124 C-9.51722656 123.030625 -8.97195313 122.06125 -8.41015625 121.0625 C-7.71212891 120.0415625 -7.71212891 120.0415625 -7 119 C-6.34 119 -5.68 119 -5 119 C-4.67 117.35 -4.34 115.7 -4 114 C-1 113 -1 113 1.1875 113.9375 C1.785625 114.288125 2.38375 114.63875 3 115 C3 115.66 3 116.32 3 117 C3.69480469 117.25523437 4.38960938 117.51046875 5.10546875 117.7734375 C8.35317449 119.14965828 11.27982916 120.82539313 14.3125 122.625 C15.91544922 123.57246094 15.91544922 123.57246094 17.55078125 124.5390625 C18.35902344 125.02117187 19.16726563 125.50328125 20 126 C18.94124926 129.40312738 17.99097846 132.01353231 16 135 C15.34 135 14.68 135 14 135 C13.75121094 135.85722656 13.50242187 136.71445312 13.24609375 137.59765625 C11.90638782 141.25559939 10.1710008 144.16677157 8.0625 147.4375 C5.20939554 151.86914449 2.96331499 156.13171737 1 161 C0.34 161 -0.32 161 -1 161 C-1.26039063 161.87914062 -1.52078125 162.75828125 -1.7890625 163.6640625 C-2.98860846 166.96861815 -4.42135996 169.46586788 -6.375 172.375 C-8.4376478 175.5241454 -10.38946562 178.59687084 -12 182 C-13.56125667 185.27597018 -15.4018147 188.26655675 -17.375 191.3125 C-20.23593445 195.73725031 -22.82819215 200.23042446 -25.3125 204.875 C-27.45319225 208.83924492 -29.66190348 212.76334 -31.875 216.6875 C-32.28089355 217.40768311 -32.68678711 218.12786621 -33.10498047 218.86987305 C-34.06938619 220.58025426 -35.03460448 222.29017727 -36 224 C-39.47000311 222.8433323 -39.84701459 222.14273284 -41.6875 219.125 C-42.12449219 218.42632812 -42.56148438 217.72765625 -43.01171875 217.0078125 C-44 215 -44 215 -44 212 C-44.99 211.67 -45.98 211.34 -47 211 C-47.33 209.02 -47.66 207.04 -48 205 C-48.66 205 -49.32 205 -50 205 C-50.39832031 204.26394531 -50.79664063 203.52789062 -51.20703125 202.76953125 C-51.73683594 201.79371094 -52.26664062 200.81789063 -52.8125 199.8125 C-53.33457031 198.84957031 -53.85664063 197.88664063 -54.39453125 196.89453125 C-55.45041206 194.99086293 -56.55140641 193.11141174 -57.69921875 191.26171875 C-59 189 -59 189 -59 187 C-59.66 187 -60.32 187 -61 187 C-61.23074219 186.45472656 -61.46148437 185.90945313 -61.69921875 185.34765625 C-63.8710639 180.32580087 -66.28195286 175.56967689 -69.046875 170.84765625 C-70 169 -70 169 -70 167 C-70.66 167 -71.32 167 -72 167 C-72.37511719 166.29875 -72.75023437 165.5975 -73.13671875 164.875 C-73.64847656 163.92625 -74.16023438 162.9775 -74.6875 162 C-75.22890625 160.99582031 -75.7703125 159.99164063 -76.328125 158.95703125 C-77.75837015 156.42736868 -79.28734978 154.07465551 -80.9375 151.6875 C-82.82976423 148.76473518 -83.0100356 148.1873312 -82.8125 144.5 C-82.544375 143.675 -82.27625 142.85 -82 142 C-81.34 142 -80.68 142 -80 142 C-79.67 140.783125 -79.34 139.56625 -79 138.3125 C-76.51802628 130.81907695 -72.00556364 123.56804153 -66.93359375 117.546875 C-64.64465234 114.53194611 -63.43961334 111.49566687 -62 108 C-60.71813051 105.59955649 -59.41651479 103.23337985 -58.0625 100.875 C-57.68206543 100.20702393 -57.30163086 99.53904785 -56.90966797 98.85083008 C-56.07120123 97.3794228 -55.23128925 95.9088384 -54.39013672 94.43896484 C-52.86518732 91.76347407 -51.35594775 89.07944566 -49.84765625 86.39453125 C-48.7736843 84.49204816 -47.69946813 82.58970291 -46.625 80.6875 C-45.85748413 79.31730713 -45.85748413 79.31730713 -45.07446289 77.91943359 C-44.58840576 77.0630127 -44.10234863 76.2065918 -43.6015625 75.32421875 C-43.17182129 74.56197998 -42.74208008 73.79974121 -42.29931641 73.0144043 C-41.03419241 71.05301044 -39.65485599 69.6291747 -38 68 C-37.30208114 66.34617671 -36.6376791 64.67797127 -36 63 C-35.05298043 61.33546143 -34.07263447 59.68951047 -33.0625 58.0625 C-31.3143592 55.21273275 -29.72674036 52.44372145 -28.25 49.4375 C-27 47 -27 47 -25 46 C-24.34786708 43.97536745 -24.34786708 43.97536745 -24 42 C-23.34 42 -22.68 42 -22 42 C-21.64679688 40.7625 -21.29359375 39.525 -20.9296875 38.25 C-18.84862996 32.01414647 -15.50478724 26.60721459 -12.125 21 C-10.89761331 18.93799036 -9.67103763 16.87549775 -8.4453125 14.8125 C-7.63344482 13.46091797 -7.63344482 13.46091797 -6.80517578 12.08203125 C-4.46909491 8.09356967 -2.24475802 4.04056444 0 0 Z " fill="#070707" transform="translate(412,137)"/>
<path d="M0 0 C4.16218556 -0.24843165 8.32039169 -0.42914913 12.48779297 -0.54931641 C13.90261999 -0.5994188 15.31693378 -0.66753362 16.72998047 -0.75439453 C21.2793196 -1.02690604 25.53349401 -1.09052011 30 0 C33.1183952 2.92989825 34.54954369 6.0205805 36 10 C37.6129902 14.12021919 39.53985183 17.54723268 41.9765625 21.23046875 C43 23 43 23 43 25 C43.66 25 44.32 25 45 25 C48 30.75 48 30.75 48 33 C48.66 33 49.32 33 50 33 C50.83819158 34.62249941 51.6704116 36.24808497 52.5 37.875 C52.9640625 38.77992188 53.428125 39.68484375 53.90625 40.6171875 C55 43 55 43 55 45 C55.66 45 56.32 45 57 45 C58.42297212 47.60878222 59.84549625 50.2177931 61.265625 52.828125 C62.4131154 54.92668853 63.56925146 57.02054991 64.734375 59.109375 C65.27578125 60.08390625 65.8171875 61.0584375 66.375 62.0625 C66.87773437 62.96097656 67.38046875 63.85945313 67.8984375 64.78515625 C69 67 69 67 69 69 C69.66 69 70.32 69 71 69 C71.33 70.65 71.66 72.3 72 74 C72.66 74 73.32 74 74 74 C74 74.66 74 75.32 74 76 C78.11088957 72.47638037 80.12053721 69.00925137 82.41796875 64.14453125 C84.43645369 60.13248095 86.70467562 56.29608098 89 52.4375 C92.42559911 46.6717589 95.78801995 40.8886301 99 35 C99.66 35 100.32 35 101 35 C101.18175781 34.39671875 101.36351562 33.7934375 101.55078125 33.171875 C101.80214844 32.37265625 102.05351562 31.5734375 102.3125 30.75 C102.55613281 29.96109375 102.79976563 29.1721875 103.05078125 28.359375 C104.06216859 25.84547396 105.34410149 24.13371997 107 22 C107.96535394 20.30725052 108.90108802 18.59739288 109.8125 16.875 C117.58866279 2.41133721 117.58866279 2.41133721 120 0 C122.21855264 -0.08783542 124.43988496 -0.10694609 126.66015625 -0.09765625 C127.65685585 -0.09553383 127.65685585 -0.09553383 128.6736908 -0.09336853 C130.80333899 -0.08775518 132.93288339 -0.07520054 135.0625 -0.0625 C136.50325369 -0.05748671 137.94400903 -0.05292351 139.38476562 -0.04882812 C142.92321102 -0.03778145 146.46159539 -0.02050792 150 0 C150 0.99 150 1.98 150 3 C149.34 3 148.68 3 148 3 C147.6596875 4.2375 147.6596875 4.2375 147.3125 5.5 C146.03148713 8.91603432 144.50654617 11.52498135 142.5390625 14.5625 C138.39533483 21.12515498 134.67921851 27.97562004 130.90625 34.7578125 C126.27289482 43.07474335 121.46181179 51.26147747 116.53027344 59.40527344 C112.62644201 65.88168731 108.90664124 72.44466997 105.29711914 79.08935547 C103.56223076 82.268066 101.80382687 85.36400147 99.765625 88.359375 C98.19772452 90.70428811 97.42298444 92.25060111 97 95 C96.34 95 95.68 95 95 95 C94.7628125 95.66 94.525625 96.32 94.28125 97 C92.32360935 101.58374396 89.76715683 105.80575399 87.27734375 110.1171875 C85.2433244 113.67504312 83.39142659 117.12820428 82 121 C81.34 121 80.68 121 80 121 C79.71125 121.7425 79.4225 122.485 79.125 123.25 C78.17697356 125.56739797 77.15154089 127.77917115 76 130 C73 129 73 129 71.67578125 126.76953125 C71.22589844 125.79371094 70.77601563 124.81789063 70.3125 123.8125 C68.03371031 119.05701084 65.63063939 114.44090873 63 109.875 C62.66331299 109.28920166 62.32662598 108.70340332 61.97973633 108.09985352 C59.40639258 103.64978962 56.74784301 99.25451378 54.03125 94.890625 C53 93 53 93 53 91 C52.34 91 51.68 91 51 91 C50.66226563 90.30132812 50.32453125 89.60265625 49.9765625 88.8828125 C49.53054688 87.97273438 49.08453125 87.06265625 48.625 86.125 C48.18414062 85.22007812 47.74328125 84.31515625 47.2890625 83.3828125 C46.09497301 80.90465528 46.09497301 80.90465528 44 79 C43.25212256 77.27663024 42.50706455 75.55173972 41.796875 73.8125 C40.94976535 71.78254208 40.94976535 71.78254208 39.3125 69.1875 C38 67 38 67 38 65 C37.34 65 36.68 65 36 65 C34.28232318 61.01811282 32.58962659 57.03520597 31 53 C30.34 53 29.68 53 29 53 C28.01 49.535 28.01 49.535 27 46 C26.34 46 25.68 46 25 46 C23.515 41.545 23.515 41.545 22 37 C21.34 37 20.68 37 20 37 C19.61070312 36.27039063 19.22140625 35.54078125 18.8203125 34.7890625 C16.03105027 29.58329659 13.22570203 24.38959091 10.34375 19.234375 C9.89370605 18.42919434 9.44366211 17.62401367 8.97998047 16.79443359 C8.08543013 15.1971374 7.18866312 13.60108037 6.28955078 12.00634766 C5.87688965 11.2694873 5.46422852 10.53262695 5.0390625 9.7734375 C4.66990723 9.11778809 4.30075195 8.46213867 3.92041016 7.78662109 C3 6 3 6 2 3 C1.34 3 0.68 3 0 3 C0 2.01 0 1.02 0 0 Z " fill="#060606" transform="translate(245,137)"/>
<path d="M0 0 C10.23 0 20.46 0 31 0 C30.67 1.32 30.34 2.64 30 4 C29.67 3.34 29.34 2.68 29 2 C24.58281944 2.10984901 20.1664929 2.24048753 15.75 2.375 C13.86861328 2.42140625 13.86861328 2.42140625 11.94921875 2.46875 C10.74394531 2.50742188 9.53867187 2.54609375 8.296875 2.5859375 C6.63156738 2.63306885 6.63156738 2.63306885 4.93261719 2.68115234 C2.11134958 2.98789356 0.4029991 3.54286225 -2 5 C-1.34 3.35 -0.68 1.7 0 0 Z " fill="#ACACAC" transform="translate(428,163)"/>
<path d="M0 0 C0.66 0.99 1.32 1.98 2 3 C1.360625 3.226875 0.72125 3.45375 0.0625 3.6875 C-2.25653741 4.83913693 -2.25653741 4.83913693 -2.6875 7.5 C-2.790625 8.325 -2.89375 9.15 -3 10 C-3.33 10.66 -3.66 11.32 -4 12 C-4.66 12 -5.32 12 -6 12 C-4.68139111 7.38486888 -2.78644563 3.90102388 0 0 Z " fill="#ADADAD" transform="translate(410,194)"/>
<path d="M0 0 C0.33 0.66 0.66 1.32 1 2 C0.33333333 3.66666667 -0.33333333 5.33333333 -1 7 C-0.67 7.66 -0.34 8.32 0 9 C-3.75 12 -3.75 12 -6 12 C-4.43358249 7.69235185 -2.31663844 3.93828536 0 0 Z " fill="#484848" transform="translate(354,155)"/>
</svg>
